<?xml version="1.0" encoding="UTF-8" standalone="no"?>
<svg
   xmlns:dc="http://purl.org/dc/elements/1.1/"
   xmlns:cc="http://creativecommons.org/ns#"
   xmlns:rdf="http://www.w3.org/1999/02/22-rdf-syntax-ns#"
   xmlns:svg="http://www.w3.org/2000/svg"
   xmlns="http://www.w3.org/2000/svg"
   xmlns:sodipodi="http://sodipodi.sourceforge.net/DTD/sodipodi-0.dtd"
   xmlns:inkscape="http://www.inkscape.org/namespaces/inkscape"
   width="87.146072mm"
   height="87.146072mm"
   viewBox="0 0 87.146073 87.146073"
   version="1.1"
   id="svg8"
   inkscape:version="1.0.1 (3bc2e813f5, 2020-09-07)"
   sodipodi:docname="perl.svg">
  <defs
     id="defs2">
    <clipPath
       clipPathUnits="userSpaceOnUse"
       id="clipPath863">
      <rect
         style="fill:none;stroke:#000000;stroke-width:4;stroke-linecap:round;stroke-linejoin:round;stroke-opacity:1"
         id="rect865"
         width="83.146072"
         height="83.146072"
         x="74.512047"
         y="51.72047"
         ry="41.573036" />
    </clipPath>
  </defs>
  <sodipodi:namedview
     id="base"
     pagecolor="#ffffff"
     bordercolor="#666666"
     borderopacity="1.0"
     inkscape:pageopacity="0.0"
     inkscape:pageshadow="2"
     inkscape:zoom="0.24748737"
     inkscape:cx="289.72106"
     inkscape:cy="446.06424"
     inkscape:document-units="mm"
     inkscape:current-layer="layer1"
     inkscape:document-rotation="0"
     showgrid="false"
     inkscape:snap-grids="false"
     inkscape:snap-to-guides="false"
     inkscape:object-nodes="false"
     inkscape:snap-nodes="false"
     inkscape:snap-others="false"
     inkscape:snap-global="false"
     fit-margin-top="0"
     fit-margin-left="0"
     fit-margin-right="0"
     fit-margin-bottom="0"
     inkscape:window-width="1864"
     inkscape:window-height="1016"
     inkscape:window-x="1976"
     inkscape:window-y="27"
     inkscape:window-maximized="1" />
  <metadata
     id="metadata5">
    <rdf:RDF>
      <cc:Work
         rdf:about="">
        <dc:format>image/svg+xml</dc:format>
        <dc:type
           rdf:resource="http://purl.org/dc/dcmitype/StillImage" />
        <dc:title />
      </cc:Work>
    </rdf:RDF>
  </metadata>
  <g
     inkscape:label="Lag 1"
     inkscape:groupmode="layer"
     id="layer1"
     transform="translate(-72.512047,-49.72047)">
    <rect
       style="fill:#fafafa;fill-opacity:1;stroke:#000000;stroke-width:4;stroke-linecap:round;stroke-linejoin:round;stroke-opacity:1"
       id="rect844"
       width="79.939682"
       height="79.939682"
       x="76.115242"
       y="53.323666"
       ry="39.969841" />
    <path
       id="rect833"
       style="fill:#8fa4c0;fill-opacity:1;stroke-width:15.1181;stroke-linecap:round;stroke-linejoin:round"
       d="M 240.44922 54.388672 C 252.99137 75.357607 260.19531 99.919674 260.19531 126.22852 C 260.19531 203.6419 197.87238 265.96289 120.45898 265.96289 C 101.36401 265.96289 83.190388 262.16583 66.640625 255.29102 C 90.874302 282.09234 125.77128 298.85742 164.68555 298.85742 C 238.21146 298.85742 297.4043 239.01687 297.4043 164.68555 C 297.4043 118.87454 274.9147 78.575306 240.44922 54.388672 z "
       transform="matrix(0.26458333,0,0,0.26458333,72.512047,49.72047)" />
    <path
       sodipodi:type="star"
       style="fill:#8fa4c0;stroke:#ffffff;stroke-width:6.80418;stroke-linecap:round;stroke-linejoin:round;stroke-miterlimit:4;stroke-dasharray:none;stroke-opacity:1;fill-opacity:1"
       id="path843"
       sodipodi:sides="4"
       sodipodi:cx="-4.4329414"
       sodipodi:cy="66.641853"
       sodipodi:r1="63.670364"
       sodipodi:r2="19.101109"
       sodipodi:arg1="-0.56816561"
       sodipodi:arg2="0.21723256"
       inkscape:flatsided="false"
       inkscape:rounded="0.0904818"
       inkscape:randomized="0"
       d="M 49.234137,32.381673 C 51.763446,36.343725 15.232349,66.168593 14.219246,70.758678 13.206144,75.348764 33.789291,117.77962 29.827239,120.30893 25.865187,122.83824 -3.9596807,86.307143 -8.5497662,85.294041 -13.139852,84.280938 -55.570711,104.86409 -58.10002,100.90203 -60.629329,96.939982 -24.098231,67.115114 -23.085129,62.525029 -22.072027,57.934943 -42.655174,15.504084 -38.693122,12.974775 -34.73107,10.445466 -4.9062022,46.976563 -0.3161167,47.989666 4.2739688,49.002768 46.704828,28.419621 49.234137,32.381673 Z"
       transform="matrix(0.29204445,-0.03330251,0.03330251,0.29204445,95.578001,50.768307)" />
  </g>
</svg>
